<svg width="201" height="76" viewBox="0 0 201 76" fill="none" xmlns="http://www.w3.org/2000/svg">
<path fill-rule="evenodd" clip-rule="evenodd" d="M8.49141 7.15833C7.65123 8.47648 6.21359 9.26438 4.64899 9.26438C1.99776 9.26438 0 7.25915 0 4.62285C0 1.98656 2.01643 0 4.69007 0C6.26214 0 7.6363 0.761763 8.45034 2.08364L8.62958 2.37491L7.44212 3.2599L7.22554 2.92756C6.62435 2.00523 5.70202 1.47872 4.69007 1.47872C2.89022 1.47872 1.53473 2.81927 1.53473 4.62285C1.53473 6.42644 2.87528 7.78566 4.64899 7.78566C6.09037 7.78566 6.98656 6.75504 7.30396 6.31441L7.52427 6.00448L8.67812 6.86707L8.49141 7.15833ZM18.6744 4.63406C18.6744 7.27409 16.6729 9.26438 14.0179 9.26438V9.26064C11.3629 9.26064 9.36145 7.27035 9.36145 4.63032C9.36145 1.99029 11.3629 0 14.0179 0C16.6729 0 18.6744 1.99403 18.6744 4.63406ZM17.1471 4.63032C17.1471 2.81927 15.8028 1.45258 14.0179 1.45258C12.233 1.45258 10.8887 2.81927 10.8887 4.63032C10.8887 6.44137 12.233 7.80807 14.0179 7.80807C15.8028 7.80807 17.1471 6.44137 17.1471 4.63032ZM21.0119 4.11127C21.0119 2.68109 22.2031 1.47124 23.6146 1.47124C25.2688 1.47124 26.0418 2.28154 26.0418 4.02912V9.09633H27.5691V3.71545C27.5691 1.42643 26.1202 0.00372314 23.7827 0.00372314C22.6998 0.00372314 21.7364 0.384604 21.0119 1.07168V0.171759H19.4847V9.09633H21.0119V4.115V4.11127ZM36.8708 7.15833C36.0306 8.47648 34.593 9.26438 33.0284 9.26438H33.0246C30.3734 9.26438 28.3756 7.25915 28.3756 4.62285C28.3756 1.98656 30.3921 0 33.0657 0C34.6415 0 36.0119 0.758028 36.8297 2.08364L37.0089 2.37491L35.8215 3.2599L35.6049 2.92756C35.0037 2.00523 34.0814 1.47872 33.0694 1.47872C31.2696 1.47872 29.9141 2.81927 29.9141 4.62285C29.9141 6.42644 31.2547 7.78566 33.0284 7.78566C34.4697 7.78566 35.3659 6.75504 35.6833 6.31441L35.9036 6.00448L37.0575 6.86707L36.8708 7.15833ZM41.5273 9.26436C42.6101 9.26436 43.5736 8.88348 44.298 8.19267V9.09259H45.8252V0.171753H44.298V5.15308C44.298 6.58325 43.1068 7.79311 41.6953 7.79311C40.0411 7.79311 39.2681 6.97907 39.2681 5.23523V0.171753H37.7408V5.55263C37.7408 7.84166 39.1897 9.26436 41.5273 9.26436ZM50.2278 1.47125C48.9395 1.47125 48.1703 2.44586 48.1703 4.07767L48.1665 4.0814V9.09634H46.6318V0.17177H48.1591V0.769231C48.7565 0.261389 49.5556 0 50.2427 0C50.7319 0 51.2061 0.0784167 51.4862 0.201643L51.7326 0.309933L51.5945 1.75878L51.1426 1.60194C50.885 1.51232 50.5937 1.47125 50.2278 1.47125ZM56.1352 7.81179C55.1494 7.81179 54.2681 7.36369 53.7715 6.61687L53.54 6.26586L52.4011 7.23673L52.5766 7.50933C53.2674 8.59222 54.6341 9.2681 56.1427 9.2681C58.118 9.2681 59.5519 8.16653 59.5519 6.64674C59.5519 4.85436 57.9425 4.29797 56.4377 3.91709C54.8133 3.5026 54.3391 3.27482 54.3391 2.55787C54.3391 1.79611 55.2129 1.4563 56.0792 1.4563C56.8895 1.4563 57.6139 1.7737 58.0695 2.32635L58.3159 2.62508L59.3951 1.66915L59.1822 1.39282C58.525 0.537704 57.3338 0.00372314 56.0792 0.00372314C54.2084 0.00372314 52.7969 1.11649 52.7969 2.59148C52.7969 4.41 54.3801 4.94398 56.0008 5.33233C57.5654 5.70574 58.0209 6.00074 58.0209 6.64674C58.0209 7.50932 57.0501 7.81552 56.1389 7.81552L56.1352 7.81179ZM69.6751 4.63404C69.6751 7.27407 67.6736 9.26437 65.0187 9.26437C62.3637 9.26437 60.3622 7.27407 60.3622 4.63404C60.3622 1.99401 62.3637 0.00372314 65.0187 0.00372314C67.6736 0.00372314 69.6751 1.99401 69.6751 4.63404ZM68.1479 4.63031C68.1479 2.81926 66.8036 1.45257 65.0187 1.45257C63.2338 1.45257 61.8895 2.81926 61.8895 4.63031C61.8895 6.44136 63.2338 7.80805 65.0187 7.80805C66.8036 7.80805 68.1479 6.44136 68.1479 4.63031ZM4.44735 17.0351C5.66657 17.0351 6.81505 17.4967 7.64003 18.2862V13.3906H9.16729V26.1277H7.65123V25.0298C6.82972 25.8327 5.67961 26.2995 4.44735 26.2995C1.91187 26.2995 0 24.2942 0 21.6579C0 19.0216 1.91187 17.0351 4.44735 17.0351ZM4.51456 24.8543C2.78193 24.8543 1.52726 23.5101 1.52726 21.6579C1.52726 19.8058 2.8118 18.4802 4.51456 18.4802C6.33308 18.4802 7.70351 19.8469 7.70351 21.6579C7.70351 23.469 6.33308 24.8543 4.51456 24.8543ZM18.6262 24.1609L18.6296 24.1636V24.1561L18.6262 24.1609ZM17.4869 23.2748L18.6262 24.1609L18.4242 24.4474C17.6064 25.6012 16.1762 26.292 14.6004 26.292C11.9268 26.292 9.98505 24.2569 9.98505 21.6617C9.98505 19.0665 12.0015 17.0314 14.4996 17.0314C16.9977 17.0314 18.7491 18.7453 18.7603 21.2024C18.7603 21.3704 18.7528 21.6206 18.7229 21.8633L18.6818 22.1919H11.5384C11.77 23.9171 13.2076 24.817 14.6042 24.817C15.6721 24.817 16.6131 24.3727 17.2554 23.5624L17.4869 23.2748ZM17.2181 20.7842C17.0538 19.4324 15.9933 18.5176 14.5295 18.5176C13.0657 18.5176 11.8895 19.4474 11.5945 20.7842H17.2181ZM42.2592 62.0949C42.1046 62.1025 42.0388 62.1861 41.9715 62.2716C41.9071 62.3535 41.8414 62.437 41.6953 62.4571C41.5746 62.4932 41.4289 62.5112 41.2786 62.5298H41.2785C40.9314 62.5728 40.5593 62.6189 40.4108 62.8977C40.095 62.7743 39.7971 62.9053 39.4892 63.0406C39.331 63.1101 39.1702 63.1808 39.003 63.2188C38.7335 63.3027 38.7063 63.426 38.6839 63.5272C38.6645 63.6153 38.6488 63.6866 38.4802 63.7005C37.866 63.7075 37.6301 63.8928 37.3906 64.0808C37.2472 64.1934 37.1025 64.3069 36.8745 64.3839C36.5926 64.5705 36.2483 64.7172 35.8997 64.8658C35.2646 65.1365 34.6151 65.4133 34.3017 65.9485C33.9769 65.7282 33.7902 65.7543 33.3794 65.9896C32.4959 66.4468 31.6241 66.9996 30.767 67.5431C29.3566 68.4374 27.9862 69.3063 26.6692 69.6826C23.3505 71.1337 23.737 68.7605 24.1064 66.493L24.1064 66.4928C24.161 66.158 24.2151 65.8254 24.2569 65.5078C24.2227 65.291 24.2986 65.1928 24.3765 65.0921C24.4261 65.028 24.4764 64.9629 24.4996 64.8656C24.4967 64.7458 24.4077 64.6735 24.3312 64.6113C24.2143 64.5163 24.1265 64.4449 24.4175 64.2644C24.4675 64.2338 24.5126 64.2082 24.5527 64.1853C24.7429 64.0769 24.8211 64.0324 24.7872 63.835C24.8284 63.3403 25.0061 62.8844 25.1822 62.4326C25.3252 62.0658 25.4671 61.7017 25.534 61.3219V61.3891C25.5644 61.317 25.6133 61.2492 25.6624 61.1811L25.6624 61.1811C25.7759 61.0235 25.8911 60.8638 25.7842 60.6423C25.8738 59.9477 26.1763 59.4063 26.531 58.8163C26.3704 58.7341 26.2771 58.6595 26.1576 58.525C26.3107 58.4279 26.7252 58.1852 26.9044 58.1516C26.9828 57.6886 27.2368 56.7476 27.5691 56.2845C27.6888 55.8176 27.9068 55.4213 28.1266 55.0217C28.2496 54.7982 28.3731 54.5738 28.4802 54.3353C28.5213 53.7789 28.8947 53.174 29.2681 52.8828V52.9052C29.3435 52.74 29.4205 52.5778 29.497 52.4166L29.497 52.4165C29.7577 51.8671 30.0135 51.3281 30.1867 50.7132C30.2406 50.637 30.2958 50.5595 30.352 50.4807C30.8402 49.7955 31.3946 49.0174 31.7028 48.2002C31.7338 47.9517 31.9016 47.7998 32.0767 47.6413C32.2595 47.4757 32.4504 47.3028 32.5019 47.0052C32.4011 46.7625 32.3899 46.6692 32.6214 46.4078C32.8977 46.0456 33.2002 45.5079 33.3794 45.112C33.4408 45.0566 33.5403 44.999 33.6479 44.9367C33.9463 44.7641 34.3076 44.555 34.0964 44.2532C34.5769 43.8358 34.5163 43.7524 34.4573 43.6711C34.4186 43.6177 34.3806 43.5653 34.4959 43.4205V43.4578C35.3174 41.5683 36.7252 39.9701 38.3869 38.5586C38.3364 39.4771 38.0217 40.4509 37.7108 41.4133L37.7108 41.4133L37.7107 41.4134C37.3087 42.6577 36.9128 43.8828 37.1023 44.944C37.3077 44.9701 37.2853 45.1904 37.065 45.2241C36.8447 45.2614 36.8335 45.3585 36.9492 45.4668C36.9492 45.5114 36.8862 45.583 36.8206 45.6574C36.7546 45.7323 36.686 45.8101 36.6766 45.8663C36.5945 46.5011 36.5049 47.2741 36.5198 47.9126C36.2248 49.3129 36.3182 52.1658 37.3376 53.5325L37.4445 53.6998L37.5197 53.8176L37.5197 53.8176C38.3369 55.0987 39.2109 56.4688 40.295 57.3861C40.4594 57.1584 40.7314 57.3358 41.0018 57.5123C41.3211 57.7206 41.6383 57.9275 41.7737 57.4645C41.8633 57.1509 41.9754 56.7438 41.5796 56.5833C42.0941 56.2182 41.9253 56.0396 41.7094 55.8112C41.5963 55.6915 41.4702 55.5582 41.4227 55.3772C41.5198 55.1494 41.5086 54.7722 41.4601 54.4922C41.5123 54.3801 41.5571 54.1934 41.4601 54.0926C41.3683 54.0049 41.4202 53.8828 41.4758 53.7516C41.5211 53.6448 41.569 53.5321 41.5439 53.4272C41.5768 53.4121 41.606 53.386 41.6281 53.3383H41.4974C41.5181 53.366 41.5325 53.3937 41.5404 53.4214C41.425 53.4789 41.2892 53.3529 41.4675 53.2898C41.5459 53.2898 41.471 53.139 41.4392 53.0749C41.4316 53.0596 41.4265 53.0492 41.4265 53.0471C41.4485 52.9369 41.5355 52.8301 41.6268 52.7179C41.7523 52.5639 41.8859 52.3998 41.8708 52.2031L41.953 52.0015C41.5814 51.5534 41.8815 50.9394 42.1176 50.4564C42.2041 50.2793 42.2821 50.1198 42.3152 49.9925C42.1941 49.5688 42.3873 49.1268 42.5676 48.7144L42.5676 48.7144L42.5676 48.7143L42.5676 48.7143L42.5676 48.7143L42.5676 48.7142L42.5677 48.7142L42.5678 48.7139C42.6321 48.5668 42.6947 48.4235 42.7409 48.286C43.5452 44.6567 44.9122 41.201 46.2902 37.718C47.484 34.7004 48.6859 31.6622 49.537 28.4727C49.5803 26.0835 47.7015 25.1035 45.9844 24.2078L45.8066 24.115C45.5657 23.4458 44.9314 23.4376 44.3342 23.4298C44.1816 23.4279 44.0315 23.4259 43.891 23.413C43.0854 22.1858 42.8959 23.2143 42.7386 24.0681C42.6939 24.3106 42.6518 24.5389 42.599 24.6975C42.655 25.5863 41.5422 25.1382 41.1053 24.8581C39.6094 24.8013 38.5264 26.0851 37.5311 27.265C37.0879 27.7905 36.662 28.2953 36.2248 28.652C33.3346 31.9081 30.7356 35.4556 28.7229 39.171C28.6221 39.3587 28.5423 39.5148 28.5213 39.7072V39.6187L28.5217 39.6082L28.5215 39.5967L28.5213 39.593V39.6187C28.5158 39.7092 28.4496 39.7236 28.3755 39.7396C28.3078 39.7542 28.2336 39.7703 28.1927 39.8469C27.4717 39.8081 26.7002 41.6227 26.2663 42.6434L26.2662 42.6436L26.266 42.6442L26.2658 42.6446L26.2656 42.645L26.2653 42.6458C26.1985 42.8029 26.1397 42.9412 26.0904 43.0508C26.0029 43.1659 25.9098 43.2841 25.8144 43.4052L25.8142 43.4054L25.8141 43.4056C25.2005 44.1842 24.4946 45.0799 24.6303 46.0008C24.1803 46.3116 24.1589 46.5455 24.1364 46.7918C24.1124 47.0543 24.0872 47.3308 23.54 47.7297C23.2338 47.9313 22.7969 48.8051 22.9649 49.1225C23.0956 48.9918 23.2973 49.0889 23.3346 49.2494C23.2327 49.7625 22.9776 49.8731 22.7071 49.9904C22.452 50.101 22.1832 50.2175 22.0164 50.6833C21.8521 50.941 20.6348 52.8641 21.4563 52.5803C21.4519 52.9865 21.1542 53.4231 20.8475 53.8728C20.3705 54.5721 19.872 55.303 20.422 56.0008C20.2848 56.3118 20.1557 56.3573 20.0284 56.4022C19.8193 56.476 19.615 56.548 19.3876 57.7894C19.0553 58.7976 18.8536 59.7536 19.1897 60.6124C19.1258 60.7437 19.0638 60.8688 19.0042 60.989C18.4329 62.1411 18.0799 62.8529 18.3943 64.3913C18.4592 64.5577 18.6044 64.5346 18.7433 64.5125C18.9725 64.476 19.1847 64.4422 18.9918 65.2651C19.0478 66.3368 19.1748 67.1882 20.0262 68.8051C20.2771 69.6612 20.7381 70.0669 21.3059 70.5665L21.3059 70.5666L21.3061 70.5667C21.4564 70.6989 21.6141 70.8378 21.7775 70.9933C21.9952 71.2552 22.2079 71.5184 22.4188 71.7794C24.1503 73.9222 25.7576 75.9112 28.9731 75.7282C32.6714 75.4022 35.6274 73.0421 38.4509 70.7877L38.4509 70.7877C39.5417 69.9168 40.6127 69.0617 41.699 68.3458C42.23 68.1941 42.6586 67.8543 43.0823 67.5185C43.3261 67.3252 43.5683 67.1332 43.8275 66.9791C46.4787 66.2845 44.9216 64.6639 43.708 63.4055C43.4167 63.2731 43.1499 62.9708 42.893 62.6796L42.893 62.6796C42.6789 62.437 42.4717 62.2021 42.2629 62.0799L42.2592 62.0949ZM42.1397 50.351C42.0797 50.3234 42.0682 50.2345 42.0602 50.1732L42.0602 50.1727C42.059 50.1637 42.0579 50.1552 42.0567 50.1477C42.0546 50.134 42.0523 50.1233 42.0488 50.1172C42.0578 50.1217 42.067 50.1256 42.0761 50.1296C42.1406 50.1574 42.1991 50.1827 42.1397 50.3548V50.351ZM42.0986 49.8917C42.1509 49.8656 42.177 49.9029 41.9791 50.0037C41.9604 49.9477 41.9791 49.9067 42.0986 49.8917ZM69.2645 42.6733L69.2649 42.6725C71.322 37.7524 73.4245 32.7239 73.0956 27.2442C72.9574 26.5485 72.8133 26.1937 72.7122 25.9447C72.6521 25.7969 72.6072 25.6863 72.5878 25.5639V26.1389C71.8932 24.1225 70.2875 21.9455 68.1852 21.2547C66.2771 20.4929 61.4264 18.5997 59.7423 20.5153L59.6511 20.6053C58.8671 21.3776 58.6185 21.6225 59.3129 21.9679C59.2891 22.2276 59.0762 22.6892 58.8412 23.1986C58.3026 24.3662 57.6482 25.7847 58.891 25.5975C58.8628 25.6646 58.8334 25.7204 58.8042 25.7758C58.7831 25.816 58.762 25.856 58.7416 25.9C58.5325 25.5975 58.0172 25.5489 57.7334 25.7879C57.0538 25.2054 55.2278 24.41 54.2606 25.3809C53.4998 25.6918 52.8622 26.3928 52.2806 27.0322C52.003 27.3374 51.7381 27.6286 51.4787 27.8566L51.4273 27.9552C51.0911 28.6002 50.6607 29.4259 50.0784 29.8768C50.0964 29.8853 50.1374 29.9056 50.1896 29.9314C50.3435 30.0075 50.5949 30.1317 50.6423 30.1457L50.5431 30.3472C48.44 34.6222 46.1158 39.3464 46.5459 44.3167C46.2659 47.6401 46.9044 51.2547 49.3727 53.708H49.1673C50.829 55.6012 53.0097 57.5616 55.3697 58.118C57.8865 58.9358 60.5601 56.7887 62.3674 55.1083C62.5779 54.9446 62.7196 54.7237 62.8584 54.5072C62.9413 54.3781 63.0231 54.2505 63.118 54.1374C63.1957 54.0357 63.3093 54.0195 63.4219 54.0035C63.6067 53.9772 63.7888 53.9513 63.8051 53.5475C63.7229 53.2226 63.932 52.7035 64.1262 52.4944C65.8364 50.4668 67.0239 48.133 68.0359 45.661V45.6647C68.4296 44.6701 68.8461 43.674 69.2645 42.6733ZM55.0187 53.9731C50.8327 51.6767 51.1875 45.6908 52.0388 41.6879C52.2695 41.1562 52.449 40.5294 52.6298 39.8979L52.6298 39.8979C52.7944 39.323 52.9601 38.7443 53.1665 38.23V38.0321C52.8477 38.0482 53.0441 37.6259 53.1833 37.3268C53.238 37.209 53.2839 37.1104 53.286 37.065C54.1187 35.1681 55.1083 33.2338 56.4787 31.6132C57.3244 30.7543 57.9889 29.7376 58.6247 28.7647C58.7076 28.6379 58.79 28.5118 58.8723 28.3869C58.9045 28.1827 58.8009 27.9196 58.6973 27.6564C58.5603 27.3084 58.4232 26.9602 58.5997 26.7476C58.5997 26.8559 58.6184 26.9604 58.6445 27.0575C58.9358 27.8118 60.1382 28.0209 60.534 27.2442C60.9796 26.9272 61.4395 26.4243 61.918 25.9009C63.204 24.4946 64.6249 22.9407 66.2659 24.4511C66.3115 24.7544 66.5455 24.8815 66.786 25.0122C67.0578 25.1599 67.338 25.3121 67.3637 25.7282C67.3525 26.1464 67.4459 26.5908 67.6699 26.9866C67.7453 27.1456 67.7314 27.4126 67.7179 27.6745C67.7073 27.8798 67.6968 28.0819 67.7297 28.2263C67.7801 30.8094 66.8699 33.3589 65.9942 35.8117L65.9942 35.8119L65.9941 35.8121L65.994 35.8124L65.9935 35.8138C65.7023 36.6295 65.4149 37.4344 65.168 38.2263C65.0027 38.5424 64.843 38.9209 64.6809 39.3052L64.6809 39.3053C64.4733 39.7973 64.2618 40.2988 64.0291 40.6908C63.7044 41.2976 63.321 42.0738 62.8901 42.9463C60.9129 46.9497 57.9337 52.9818 55.0149 53.9843L55.0187 53.9731ZM95.9364 59.6356C96.0552 59.847 96.1788 60.0669 96.1613 60.2726H96.1837C96.177 60.455 96.0775 60.4174 95.9769 60.3793C95.9086 60.3534 95.8398 60.3274 95.7991 60.3697C95.7169 60.7617 95.6908 61.2658 96.1426 61.4003C93.6624 65.1672 87.9398 65.9703 83.2819 66.6239L83.2811 66.6241L83.2803 66.6242L83.2793 66.6243L83.2777 66.6245C82.5163 66.7314 81.7834 66.8343 81.0978 66.9455C79.6563 67.0457 78.1475 66.8565 76.673 66.6716L76.6729 66.6716L76.6727 66.6716L76.6726 66.6716L76.6724 66.6715L76.6722 66.6715L76.6721 66.6715L76.6719 66.6715L76.6718 66.6714L76.6716 66.6714C75.9503 66.581 75.2373 66.4916 74.5444 66.4376C74.1656 66.3164 73.7717 66.199 73.3704 66.0794C70.6073 65.2558 67.5001 64.3297 66.6393 61.3592C66.6084 61.049 66.3671 60.4399 66.0992 59.7634C65.5253 58.3145 64.8289 56.5563 65.814 56.7625C65.8653 56.4787 65.6262 56.3671 65.3792 56.2518C65.0865 56.1152 64.7826 55.9733 64.9365 55.534C65.0513 55.4593 65.1802 55.3732 65.3201 55.2798C66.3915 54.5642 68.1095 53.4168 69.0739 53.6744C69.3421 53.649 69.7766 53.4615 70.2449 53.2594C71.3615 52.7777 72.6706 52.2128 72.3786 53.5623C72.2728 53.6658 72.4055 53.7599 72.5294 53.8477C72.5978 53.8962 72.6636 53.9428 72.6848 53.988C72.6699 54.3166 72.1882 54.7461 71.8073 54.944L71.728 54.9998C71.2091 55.3644 69.6803 56.4385 71.1874 56.1314C71.5459 55.7617 72.2218 55.6833 72.5355 56.0605C72.0855 56.9617 71.1839 57.6025 70.4332 58.1359C69.134 59.0592 68.287 59.6612 71.0157 60.7356C71.0765 60.9201 71.0977 60.843 71.124 60.7472C71.1494 60.6548 71.1795 60.545 71.2547 60.6348C71.3772 60.7868 71.519 60.8054 71.6558 60.8234C71.8484 60.8488 72.0311 60.8728 72.1359 61.2659C72.5838 60.7965 73.0834 60.9446 73.6036 61.0989C73.9898 61.2134 74.3873 61.3312 74.7834 61.2024C74.9895 61.1949 75.0837 61.4656 75.1538 61.667C75.2234 61.867 75.2692 61.9986 75.3771 61.7214C75.3688 61.6712 75.356 61.6153 75.3433 61.5599C75.2881 61.3185 75.2352 61.087 75.5601 61.3816C75.8628 61.1651 76.2047 61.2375 76.5515 61.3109C76.7607 61.3552 76.9718 61.3999 77.177 61.3816C77.2731 61.38 77.3354 61.4673 77.3939 61.5493C77.4672 61.652 77.5345 61.7464 77.655 61.6467C77.8438 61.3517 77.9362 61.4403 78.0411 61.5409C78.1208 61.6173 78.2077 61.7006 78.3495 61.6281C78.5698 61.4264 79.9141 61.2136 79.522 61.5123C79.4869 61.6402 79.7611 61.6613 79.9274 61.6741C79.9553 61.6763 79.9801 61.6782 80 61.6803C80.4337 61.7386 80.5063 61.6173 80.5816 61.4917C80.6606 61.3599 80.7424 61.2233 81.2472 61.2845C81.4569 61.2502 81.7132 61.2276 81.9899 61.2033H81.99L81.9901 61.2033L81.9902 61.2033C82.8861 61.1246 83.9959 61.0272 84.4324 60.4481C84.7411 60.3435 84.8938 60.079 85.0407 59.8246C85.2137 59.5251 85.3786 59.2396 85.7804 59.2457C86.0379 59.1114 86.4524 58.9623 86.9225 58.7933C88.4913 58.2294 90.6795 57.4427 89.7199 56.236C89.1119 56.1975 88.4735 55.861 87.8988 55.5581L87.8987 55.558L87.8986 55.558C87.6933 55.4498 87.4962 55.3459 87.3114 55.2614C80.3585 51.938 76.8073 49.6266 74.4921 42.1023C71.3891 36.053 76.4414 28.8424 80.5676 25.0448C80.8671 25.2915 81.1043 24.7206 81.2737 24.313C81.3197 24.2022 81.3607 24.1036 81.3966 24.0366C82.3749 22.9275 83.9283 21.3816 85.2875 20.8364C85.1755 21.0791 85.2577 21.0754 85.4892 21.0567C85.5677 21.027 85.642 21.0178 85.7085 21.0096C85.8759 20.9888 85.9938 20.9742 86.0045 20.6535C86.236 19.5033 87.3861 18.0956 88.6333 18.1927C88.6973 18.1293 88.762 18.0646 88.8278 17.9989C89.5335 17.2933 90.3538 16.4732 91.5459 16.053C95.183 13.8349 97.1172 13.4951 98.9171 17.7558C99.146 17.8964 99.4116 16.996 99.6221 16.2825L99.6221 16.2824C99.6966 16.03 99.7642 15.801 99.8208 15.6497C99.9811 15.3127 100.112 15.0041 100.227 14.7316L100.227 14.7306L100.227 14.73L100.227 14.7298C100.827 13.3098 101.011 12.8744 102.853 14.5407C102.901 14.5833 102.953 14.6277 103.006 14.6725C103.382 14.9927 103.783 15.3345 102.935 15.2166C102.852 15.4242 103.152 15.6021 103.576 15.8537C104.296 16.2808 105.374 16.9204 105.545 18.2785C105.713 20.1717 104.925 22.5018 103.532 23.693C103.536 23.768 103.553 23.8378 103.568 23.9022L103.568 23.9022C103.611 24.0878 103.643 24.2279 103.338 24.3166C102.826 24.7149 102.45 25.3983 102.089 26.0568C101.837 26.5159 101.591 26.9629 101.311 27.2927C100.986 27.8735 100.42 28.2993 99.8674 28.7147C99.0811 29.3061 98.3227 29.8766 98.3271 30.8439C98.0097 30.8252 97.7857 31.1352 97.8454 31.5011C97.6958 31.6555 97.5582 31.7948 97.4278 31.9269L97.4273 31.9274L97.4231 31.9317L97.4223 31.9325C96.8394 32.5228 96.3991 32.9687 95.6684 33.9582C95.6325 34.0199 95.5733 34.0349 95.5173 34.0491C95.4684 34.0614 95.4219 34.0732 95.3958 34.115C95.7692 34.8207 94.6863 35.4406 94.5146 35.4406C94.9027 36.0416 94.4646 36.4361 94.0371 36.821C93.827 37.0101 93.6196 37.1969 93.5138 37.4048C93.1132 37.9072 92.7857 38.4917 92.4653 39.0635C92.069 39.771 91.6834 40.459 91.1837 40.9485C91.0336 41.1836 90.8827 41.4168 90.7322 41.6492C89.6545 43.3136 88.6016 44.9396 88.0807 46.994C87.5363 47.4353 87.577 47.7096 87.6141 47.9597C87.6482 48.19 87.6793 48.3998 87.2479 48.7005C87.1464 48.7793 87.099 48.8943 87.0521 49.0083C86.9833 49.1751 86.9156 49.3395 86.6804 49.3839C86.6306 49.3312 86.6204 49.2418 86.61 49.1505C86.5939 49.0089 86.5773 48.8628 86.4115 48.8424C85.2987 48.637 84.2158 44.1001 84.6042 42.8529C84.6377 42.7357 84.6857 42.6935 84.7406 42.6454L84.7532 42.6344C84.7679 42.6214 84.783 42.6076 84.7983 42.5915C84.5692 41.7723 85.0584 41.1114 85.5802 40.4064C85.7387 40.1922 85.9002 39.974 86.0455 39.7461C86.3975 39.3882 86.6183 38.9624 86.8287 38.5566C87.1496 37.9376 87.4464 37.3651 88.1479 37.1508C88.2426 36.8827 88.1752 36.7072 88.1127 36.5444C88.015 36.2899 87.929 36.0662 88.4914 35.5676C88.747 35.45 88.7944 35.2204 88.8516 34.9436C88.8779 34.816 88.9063 34.6783 88.9582 34.5369C89.0658 34.1429 89.2915 33.9127 89.5306 33.6689C89.706 33.4899 89.8887 33.3035 90.0373 33.0396C90.393 32.6344 90.6373 32.2177 90.8727 31.816C91.2058 31.2477 91.5213 30.7095 92.1098 30.2763C91.6281 30.3136 93.2748 28.1815 93.0807 28.6781C93.1068 28.6856 93.118 28.7042 93.1143 28.7266C93.3088 28.6848 93.5027 28.0446 93.7165 27.3387C93.9992 26.4056 94.3165 25.3576 94.7162 25.4257C95.6087 25.168 95.8402 24.115 95.8999 23.3308C99.2905 19.1897 92.8977 22.8678 91.5347 23.7042C86.2659 27.3562 81.5235 31.5758 78.0956 36.8558C75.5825 41.0306 77.7707 47.3189 82.5019 49.1822C87.5653 50.7841 93.1703 53.1142 95.5526 57.3189C95.6884 57.3253 95.6311 57.6502 95.5717 57.9863C95.494 58.4266 95.4129 58.8861 95.758 58.6744C95.9335 58.693 95.8476 59.0851 95.7431 59.2083C95.7709 59.3413 95.8525 59.4863 95.9364 59.6356ZM115.743 38.0807C116.338 37.2339 116.971 36.4059 117.605 35.5763C119.198 33.4936 120.798 31.4005 121.819 28.9731C123.626 26.46 125.597 23.3532 125.616 20.0859C125.773 18.8163 125.777 17.6811 125.06 16.5235C124.029 10.814 115.568 8.49887 111.65 13.2225C111.105 13.8729 110.604 13.5734 110.106 13.2763C109.878 13.1402 109.651 13.0046 109.421 12.9612C108.801 12.7408 107.412 12.2965 106.942 12.8865C106.953 13.2695 107.028 13.6385 107.103 14.009L107.103 14.0091C107.173 14.3538 107.243 14.6998 107.263 15.0597C107.307 15.346 107.21 15.7071 107.109 16.0832C106.952 16.6686 106.786 17.2902 107.125 17.7222C107.351 18.0361 107.252 18.2588 107.13 18.5368C107.07 18.6722 107.005 18.8207 106.968 18.9992C106.893 20 106.531 20.7132 105.822 21.2099C106.768 22.0918 106.442 23.3678 106.121 24.6231C105.994 25.1216 105.867 25.6169 105.822 26.0829L105.826 26.1316C105.863 26.5697 105.911 27.132 105.512 27.4272C105.394 27.964 105.258 28.5328 105.12 29.1103L105.119 29.1142L105.119 29.1145L105.119 29.1147L105.119 29.1153L105.118 29.1159L105.118 29.1165C104.9 30.0274 104.677 30.9597 104.515 31.8222C104.661 32.7429 104.224 33.2375 103.787 33.7337C103.531 34.0245 103.274 34.3158 103.133 34.6938C103.727 34.9178 103.394 35.9522 103.237 36.4152C103.286 36.4488 103.346 36.5347 103.256 36.5497C103.775 36.6729 103.611 36.7214 103.204 36.8297C103.136 36.8891 103.15 36.9172 103.172 36.9612C103.189 36.9946 103.21 37.0372 103.204 37.1098C103.102 37.2798 103.169 37.3062 103.244 37.3357C103.296 37.356 103.351 37.3779 103.357 37.4496C103.347 37.5204 103.299 37.6189 103.246 37.7271L103.246 37.7272C103.124 37.9784 102.976 38.2814 103.219 38.4093C103.689 37.0538 104.104 36.9977 103.532 38.5362C103.52 38.5672 103.51 38.5992 103.499 38.6305C103.458 38.758 103.42 38.8753 103.252 38.8723C103.042 38.8655 102.978 39.1442 102.917 39.4087C102.844 39.73 102.775 40.0303 102.453 39.7722C100.96 39.9178 101.804 41.2099 102.382 42.0239C101.767 43.3524 101.547 44.7597 101.327 46.1651C101.164 47.2089 101 48.2517 100.676 49.2606C100.512 51.4899 100.243 54.1934 99.7909 56.3854C99.8623 56.6509 99.7397 57.0108 99.6301 57.3324C99.5163 57.6665 99.4166 57.9592 99.5631 58.062C99.5068 58.1469 99.4452 58.2285 99.3836 58.3102C99.1877 58.5697 98.9921 58.8289 98.9694 59.1897C98.9914 59.3949 99.0663 59.5853 99.1406 59.7744C99.2677 60.0979 99.3932 60.4173 99.2494 60.7991C99.1555 60.9881 99.0805 61.2049 99.0038 61.4264C98.8486 61.8744 98.6868 62.3414 98.3495 62.6363C98.3173 62.699 98.395 62.7496 98.4846 62.808C98.5818 62.8714 98.693 62.9439 98.693 63.0508C98.6873 63.4124 98.603 63.7363 98.5153 64.0732C98.4309 64.3972 98.3434 64.7334 98.3196 65.127C98.2991 65.1409 98.2701 65.159 98.2361 65.1802C97.9975 65.329 97.5143 65.6301 98.0209 65.7281C98.4686 65.9263 98.7783 66.4082 99.0868 66.8883C99.383 67.3493 99.6781 67.8086 100.093 68.0134C100.329 68.0507 100.572 68.2369 100.795 68.4079L100.795 68.4079L100.795 68.408C100.907 68.4939 101.014 68.5759 101.113 68.6333C101.172 69.4686 101.289 69.2787 101.406 69.0878C101.526 68.8929 101.646 68.6971 101.706 69.5892C101.858 69.8724 102.092 69.7528 102.321 69.6352C102.425 69.5822 102.527 69.5296 102.621 69.5146C102.711 69.5057 102.802 69.5672 102.892 69.628C103.03 69.7211 103.165 69.8125 103.29 69.6452C103.387 69.1225 103.428 69.1449 103.813 69.3615C103.865 68.7445 103.778 68.049 103.691 67.3587L103.691 67.3586V67.3585C103.605 66.6701 103.519 65.9869 103.574 65.3921C103.495 65.3547 103.506 65.3361 103.529 65.3361C103.599 65.2574 103.51 65.1864 103.42 65.1148C103.343 65.0538 103.265 64.9923 103.286 64.9253C103.45 64.6714 103.813 63.9358 103.353 63.8387C103.428 63.6646 103.358 63.4345 103.283 63.191C103.184 62.8653 103.077 62.5156 103.301 62.2442C103.349 62.1598 103.414 62.1983 103.473 62.2337C103.492 62.2452 103.511 62.2564 103.529 62.2629C103.599 62.2935 103.723 62.1964 103.82 62.1205C103.877 62.076 103.925 62.0388 103.947 62.0388C103.908 61.7543 103.97 61.4554 104.031 61.1555C104.107 60.7863 104.183 60.4154 104.074 60.0672C104.072 59.0559 104.269 58.0564 104.466 57.0575C104.683 55.9578 104.9 54.8587 104.851 53.7453C104.851 53.7453 104.675 53.3346 104.97 53.0657C104.971 53.0414 104.972 53.018 104.972 52.9952C104.973 52.9647 104.973 52.9354 104.973 52.9069V52.9062C104.974 52.6548 104.975 52.4686 105.261 52.1135C105.352 51.6735 105.379 51.3294 105.405 51.0111L105.405 51.0106V51.0105C105.44 50.578 105.471 50.1928 105.65 49.6789C105.739 49.0963 105.844 47.8417 105.81 47.2703C105.87 47.1687 105.805 47.0083 105.741 46.8522C105.661 46.6585 105.585 46.4715 105.754 46.4115C105.78 46.4263 105.805 46.4415 105.828 46.456L105.829 46.4562C105.971 46.5442 106.065 46.6023 106.068 46.3331C106.095 46.2333 106.039 46.1887 106.007 46.1631C105.969 46.1322 105.965 46.1292 106.184 46.0904C106.218 45.9094 106.124 45.8888 106.06 45.8748C105.999 45.8614 105.966 45.8541 106.102 45.7169C106.296 45.4406 106.363 45.0933 106.397 44.7797C106.591 44.6079 107.072 44.2868 107.323 44.3839C107.987 43.8293 108.797 43.4171 109.606 43.0052C110.061 42.7735 110.516 42.542 110.945 42.2853C111.056 42.2758 111.105 42.159 111.152 42.0507C111.178 41.9877 111.204 41.9275 111.24 41.8932C111.262 41.8771 111.288 41.8629 111.313 41.8489C111.405 41.7983 111.49 41.7511 111.397 41.6281C110.751 41.7065 111.277 41.0792 111.535 41.3966C112.675 41.3628 113.501 40.4214 114.325 39.4821C114.777 38.9667 115.229 38.4519 115.732 38.0881L115.743 38.0807ZM113.73 34.0515C113.514 34.2793 113.2 33.596 113.357 33.3383C113.252 32.879 112.386 34.3577 112.476 34.3503C112.502 34.547 112.773 34.3955 112.991 34.2742C113.088 34.2205 113.173 34.1727 113.223 34.1635C113.368 34.4025 113.249 34.5892 113.051 34.8021C112.847 35.1196 112.646 35.0586 112.449 34.9987C112.25 34.9381 112.055 34.8787 111.863 35.2128C111.528 35.5317 111.177 35.9217 110.815 36.3254L110.815 36.3255C110.134 37.0845 109.409 37.8915 108.656 38.3644C108.465 38.7864 108.23 39.2868 107.651 39.1486L107.657 39.08C107.676 38.8433 107.704 38.5051 107.67 38.3084C107.423 38.2674 107.409 38.2188 107.554 37.95C107.801 37.5019 107.987 37.1396 107.782 36.4526C108.648 35.4902 108.965 34.0189 109.274 32.5886L109.274 32.5884L109.274 32.5883C109.408 31.9652 109.541 31.3499 109.716 30.7879C110.437 27.7371 111.187 24.6639 112.099 21.6467C113.398 18.2636 116.344 15.1195 119.642 13.6781C120.183 13.891 120.474 14.7498 120.302 15.295C120.452 16.1538 120.556 16.9268 120.411 17.7819C120.343 18.0804 120.279 18.3684 120.216 18.65L120.216 18.6511L120.215 18.6532L120.215 18.6538L120.215 18.6547L120.214 18.6565C120.049 19.3976 119.893 20.094 119.712 20.8178C120.6 19.6074 120.329 20.8033 120.129 21.69L120.129 21.6901L120.129 21.6901C120.076 21.9222 120.028 22.1331 120.007 22.2741C119.79 22.815 119.461 23.3935 119.125 23.9832C118.648 24.8224 118.157 25.6844 117.957 26.4936C117.731 26.8899 117.439 27.2745 117.143 27.6659L117.143 27.6659C116.551 28.4472 115.94 29.255 115.78 30.2352C115.646 30.4325 115.451 30.6528 115.244 30.887C114.638 31.5706 113.928 32.3722 114.32 33.062C114.247 33.1516 114.146 33.2283 114.045 33.3048C113.797 33.4928 113.553 33.6788 113.73 34.0478V34.0515ZM103.234 36.4116C103.223 36.4452 103.211 36.4787 103.204 36.5048V36.3965C103.211 36.3965 103.223 36.404 103.234 36.4115L103.234 36.4116ZM103.868 69.382L103.847 69.3705C103.838 69.3653 103.829 69.3599 103.82 69.354V69.3951H103.891L103.868 69.382ZM146.787 47.1926L146.787 47.1928C146.828 47.2296 146.866 47.2648 146.893 47.2965C146.839 47.4502 146.872 47.5231 146.914 47.6188C146.934 47.6626 146.955 47.7112 146.972 47.7745C146.977 48.3607 146.301 48.0262 145.765 47.761C145.529 47.6444 145.321 47.5412 145.209 47.5355C144.913 47.5157 144.553 47.4886 144.16 47.4591L144.159 47.459L144.159 47.459L144.158 47.459L144.158 47.4589C143.142 47.3826 141.907 47.2898 140.99 47.2629C140.441 47.3419 139.849 47.358 139.251 47.3743C138.268 47.401 137.27 47.4282 136.426 47.7371C134.597 47.4526 131.92 48.0122 130.077 48.3973L129.877 48.4392C129.444 48.6296 128.786 48.6856 128.35 48.7118C128.195 48.772 128.05 48.8388 127.908 48.9042C127.549 49.0698 127.21 49.2259 126.792 49.242C126.628 49.3791 126.337 49.4011 126.038 49.4238C125.572 49.4591 125.087 49.4959 125.03 49.9739C124.94 49.9882 124.906 49.8848 124.881 49.8081C124.86 49.7447 124.845 49.6996 124.81 49.7536C124.786 49.7597 124.762 49.7659 124.737 49.7722C124.49 49.8346 124.191 49.9103 124.022 50.1307C122.367 50.9634 120.426 51.602 118.544 51.841C116.688 52.192 115.81 50.1195 115.68 48.6968C115.593 48.3793 115.424 48.0771 115.255 47.7759C115.007 47.333 114.76 46.8922 114.78 46.4078C114.757 45.8438 115.503 45.7319 116.241 45.6214C116.695 45.5534 117.146 45.4858 117.412 45.3137C117.666 45.2453 117.917 45.1613 118.168 45.0778C118.928 44.8242 119.673 44.5756 120.403 44.7834C120.138 44.4048 120.465 44.395 120.852 44.3835C121.14 44.3748 121.463 44.3652 121.598 44.2009C122.412 42.1322 123.04 39.6938 123.409 37.2816C123.6 37.1135 124.074 36.6169 123.771 36.3929C123.646 36.3686 123.68 36.2676 123.716 36.1612C123.742 36.0874 123.768 36.011 123.742 35.956C123.839 35.8363 123.964 35.7652 124.083 35.6976C124.29 35.5793 124.478 35.4717 124.474 35.1345C124.469 35.0649 124.403 35.0342 124.335 35.0021C124.249 34.9619 124.158 34.9193 124.175 34.7947C124.38 34.4548 124.395 34.0964 124.309 33.7342C124.351 32.7188 124.642 32.4558 124.887 32.2338C125.079 32.0598 125.244 31.9111 125.239 31.4451C125.336 30.8029 124.951 30.7394 124.907 31.3368C124.752 30.2345 125.217 29.4006 125.719 28.4983L125.721 28.4953L125.724 28.4904C125.766 28.4142 125.809 28.3374 125.851 28.2599L125.945 27.5094C125.631 27.3376 125.81 27.0799 126.038 26.9268C125.663 26.6405 125.957 26.3656 126.23 26.1096C126.371 25.9784 126.506 25.8521 126.542 25.7319C126.159 25.338 126.351 24.9061 126.536 24.4892C126.684 24.1553 126.829 23.831 126.669 23.5437C126.499 23.3355 126.615 23.0757 126.717 22.846C126.747 22.7791 126.776 22.7148 126.796 22.655C126.703 22.4048 126.613 21.9903 126.987 21.9716C127.141 21.843 127.115 21.7974 127.041 21.6655C127.029 21.6443 127.015 21.6209 127.002 21.5945C126.953 21.3032 126.897 21.3669 126.811 21.466C126.771 21.5118 126.725 21.565 126.669 21.5945C126.767 21.0283 126.894 20.4175 127.023 19.7958L127.023 19.7953C127.181 19.0354 127.342 18.2591 127.457 17.528C127.625 16.2024 128.025 14.5781 128.6 13.3944C128.264 12.6811 128.689 11.531 128.973 10.7991L128.963 10.6711C128.833 9.09302 128.684 7.29212 130.84 9.05529C133.122 9.4175 135.228 11.3368 134.634 13.9059C133.294 17.8044 132.237 21.7476 131.266 25.7655C131.171 26.1501 131.078 26.5171 130.987 26.8735L130.984 26.886L130.983 26.8882L130.983 26.889L130.983 26.8894L130.983 26.8911C130.685 28.0643 130.417 29.1228 130.194 30.31C130.206 30.3786 130.096 30.3512 130.002 30.3277C129.948 30.3141 129.898 30.3018 129.881 30.31C130.086 31.2286 129.783 32.5579 129.44 33.6259C129.309 34.156 129.214 34.7089 129.119 35.2637C128.963 36.1665 128.807 37.0743 128.495 37.8977L128.479 38.0773L128.479 38.0777C128.342 39.5522 128.159 41.5355 127.707 43.0919C127.785 43.4844 127.982 43.4511 128.197 43.4146C128.404 43.3795 128.627 43.3416 128.779 43.6744C128.88 43.6427 128.873 43.5426 128.866 43.4462C128.856 43.3154 128.847 43.1917 129.111 43.2562C129.265 43.156 129.339 43.2488 129.411 43.3383C129.505 43.4555 129.594 43.5668 129.851 43.23C130.078 43.484 130.261 43.5997 130.59 43.4504C130.656 43.4676 130.68 43.5183 130.702 43.5628C130.728 43.6145 130.749 43.6577 130.825 43.6296C131.06 43.3576 131.489 43.3023 131.918 43.2467C132.491 43.1727 133.066 43.0984 133.185 42.5094C133.285 42.5496 133.389 42.6431 133.497 42.7401C133.738 42.958 134 43.194 134.287 42.8865C135.347 42.9164 137.046 42.894 138.223 42.6811C139.048 42.487 142.143 42.1434 142.379 42.879C142.624 42.9757 142.716 42.7629 142.774 42.6308C142.803 42.564 142.823 42.5179 142.849 42.543C142.987 42.6861 143.157 42.5319 143.311 42.3916C143.382 42.3269 143.45 42.2651 143.51 42.2368C143.777 42.2342 144.18 42.7024 144.517 43.0939C144.674 43.2765 144.817 43.4424 144.925 43.5362C144.709 43.6557 144.798 43.7678 145.052 43.947C145.144 44.057 145.267 44.1798 145.398 44.3102C145.725 44.6358 146.099 45.0087 146.15 45.3473C146.153 45.4566 146.234 45.5635 146.316 45.6703C146.431 45.8226 146.547 45.975 146.438 46.1352C146.419 46.2433 146.531 46.3664 146.636 46.4816C146.759 46.6171 146.872 46.7418 146.751 46.8186C146.471 46.9062 146.641 47.0601 146.787 47.1926ZM163.551 38.4317L163.555 38.4186L163.559 38.4167L163.551 38.4317ZM163.688 37.9515L163.689 37.9485C163.768 37.6765 163.852 37.3894 163.928 37.0836C163.994 35.9519 164.355 34.8626 164.724 33.7494L164.724 33.7493C165.089 32.6477 165.462 31.5227 165.564 30.3099C165.459 29.646 165.975 29.2961 166.364 29.0319C166.726 28.7865 166.979 28.6151 166.524 28.3346C166.507 28.1997 166.834 28.1616 167.187 28.1204C167.539 28.0795 167.917 28.0354 168.01 27.8902C168.022 27.5693 168.256 27.4039 168.488 27.2406C168.755 27.0523 169.018 26.8668 168.932 26.4488C168.817 26.4131 168.646 26.4385 168.47 26.4647C168.204 26.5042 167.926 26.5455 167.812 26.3816C167.852 26.2778 168.055 26.2105 168.256 26.1437C168.561 26.0423 168.863 25.942 168.589 25.7169C168.619 25.6362 168.719 25.6099 168.832 25.5803C169.021 25.5305 169.247 25.4711 169.242 25.127C169.334 24.7419 168.936 24.7657 168.427 24.796C167.945 24.8247 167.364 24.8594 167.009 24.5556C167.737 21.9336 168.75 19.4199 169.761 16.9116L169.761 16.9113L169.761 16.9111L169.761 16.9108C170.963 13.929 172.161 10.9549 172.875 7.81553C172.905 6.7401 172.875 4.99626 171.714 4.51083C171.329 4.28894 170.96 3.95069 170.584 3.60636C169.752 2.84388 168.887 2.05161 167.752 2.42718C167.495 2.47659 167.439 2.84009 167.386 3.18138C167.324 3.58807 167.266 3.96322 166.878 3.73786C166.751 3.64824 166.423 3.39806 166.55 3.25616C167.111 3.07642 166.432 2.84427 166.064 2.71857C166.003 2.69803 165.952 2.68033 165.915 2.66617C164.341 1.80151 163.507 3.48497 162.77 4.9716C162.495 5.52661 162.234 6.05418 161.953 6.4115C161.204 7.67329 160.35 8.96056 159.491 10.2561L159.49 10.2565C157.802 12.8025 156.092 15.3806 155.112 17.8603C154.571 17.5952 153.223 19.0105 154.201 19.3167C153.226 19.817 152.864 20.5788 152.375 21.6131C152.122 21.7992 152.049 22.1694 151.981 22.5151C151.906 22.8979 151.837 23.2505 151.535 23.2898C151.311 23.2794 151.307 23.4013 151.302 23.5356C151.3 23.594 151.297 23.6548 151.277 23.708C151.196 23.8405 151.044 24.0011 150.88 24.1735L150.88 24.1736C150.513 24.56 150.09 25.0059 150.291 25.3286C150.399 25.7833 150.031 26.1823 149.666 26.5781C149.425 26.8389 149.186 27.0983 149.085 27.3712C148.819 27.9797 148.401 28.5716 147.985 29.1584C147.636 29.6519 147.29 30.1418 147.039 30.6348C146.84 30.912 146.439 30.8748 146.087 30.8422C145.672 30.8037 145.327 30.7717 145.471 31.2733C145.459 31.3293 145.254 31.5571 145.179 31.5646C145.134 31.6393 144.97 31.7102 144.869 31.6393C144.408 31.0967 144.267 31.3828 144.123 31.6747C144.009 31.9072 143.892 32.1433 143.611 31.9679C143.423 32.2711 142.953 32.3353 142.519 32.3946C141.986 32.4673 141.508 32.5326 141.677 33.0246C141.863 33.2786 141.46 33.6781 141.348 33.6445C139.817 32.1359 138.409 35.9933 138.738 37.3824C138.732 37.5309 138.719 37.6507 138.708 37.763V37.7631C138.692 37.916 138.678 38.055 138.682 38.2338C139.055 38.787 139.288 38.3672 139.54 37.9137C139.712 37.605 139.892 37.2806 140.131 37.2367C140.74 37.414 140.361 37.7757 139.914 38.2027C139.278 38.8103 138.504 39.5499 140.239 40.0784C140.161 40.2054 140.149 40.2838 140.213 40.4444C140.504 41.3181 141.893 41.8484 142.375 40.9298C142.345 40.8829 142.31 40.8366 142.274 40.7901L142.274 40.79C142.126 40.5956 141.974 40.3972 142.233 40.1382C142.606 39.4028 143.358 38.9861 144.073 38.5901C144.447 38.3828 144.811 38.1811 145.105 37.9425C145.599 37.6746 145.437 38.1363 145.256 38.6518C145.129 39.0129 144.993 39.4003 145.067 39.5818C145.067 39.6332 145.059 39.7262 145.049 39.8321L145.045 39.8842C145.285 40.1485 145.29 40.5609 145.294 40.9722C145.299 41.3337 145.303 41.6944 145.467 41.9529C145.981 42.3649 146.287 42.9976 146.595 43.6321C147.031 44.5332 147.47 45.438 148.506 45.7207C149.298 46.7812 150.19 45.1568 149.731 44.3764C149.606 43.9477 149.714 43.4914 149.813 43.0756C149.899 42.7126 149.978 42.3805 149.888 42.1247C149.421 42.1621 149.481 41.8895 149.69 41.5534C149.744 41.3678 149.756 41.1602 149.768 40.9488C149.783 40.6754 149.799 40.3958 149.907 40.1494C149.881 40.0138 149.963 39.8389 150.041 39.6719C150.167 39.4019 150.284 39.1525 149.922 39.1225C149.934 39.0819 149.947 39.0414 149.961 39.001C150.055 38.7143 150.148 38.4285 149.955 38.0881C149.979 37.6079 150.259 37.2855 150.53 36.973C150.858 36.5954 151.174 36.2325 151.008 35.6236C150.967 35.3411 151.152 35.3731 151.345 35.4065L151.348 35.407C151.535 35.0545 151.672 34.6579 151.811 34.2578C152.051 33.5645 152.294 32.8605 152.808 32.3562C153.598 32.0366 153.318 32.4822 153.072 32.8731C152.861 33.2083 152.675 33.5032 153.211 33.2412C153.584 33.151 153.855 33.1074 154.073 33.0723C154.703 32.9709 154.892 32.9406 155.81 32.0612C156.314 32.5529 156.785 32.1718 157.24 31.8037C157.362 31.7049 157.483 31.6071 157.603 31.5273C158.13 31.6073 158.621 31.3773 159.12 31.1439C159.528 30.9525 159.942 30.7588 160.385 30.7319C160.383 30.7633 160.375 30.8062 160.367 30.8543C160.337 31.0238 160.296 31.2584 160.459 31.2845C160.474 31.4743 160.366 31.6798 160.255 31.8911C160.09 32.2037 159.919 32.5289 160.131 32.8342C160.114 33.0877 160.032 33.1393 159.946 33.1932C159.843 33.2584 159.734 33.327 159.727 33.7603C159.681 34.3036 159.522 34.8284 159.365 35.3493C159.184 35.9488 159.005 36.5432 158.999 37.1546C158.904 37.526 158.793 37.839 158.683 38.1498L158.683 38.1501C158.59 38.411 158.499 38.6705 158.417 38.9619C158.559 39.3951 158.529 39.6901 158.417 40.1419C158.434 40.3394 158.555 40.4145 158.666 40.4836C158.818 40.5778 158.951 40.6607 158.779 41.0269C158.403 41.5876 158.329 42.2817 158.254 42.9791V42.9793C158.193 43.5498 158.132 44.1226 157.905 44.6266C157.859 44.6935 157.917 44.7463 157.985 44.807C158.064 44.8783 158.156 44.9605 158.103 45.0896C157.906 45.4266 157.911 46.0299 157.916 46.6214C157.92 47.0851 157.924 47.5415 157.83 47.8566C157.752 52.4085 158.85 57.7334 163.469 59.5556C164.619 59.5145 164.297 58.7295 163.955 57.8976C163.77 57.4462 163.579 56.9809 163.615 56.6131C163.418 55.7391 163.327 54.8255 163.238 53.9342C163.169 53.2528 163.103 52.5844 162.991 51.9567C163.107 51.3772 163.143 50.2089 163.178 49.0914V49.0912V49.091V49.0908C163.199 48.4443 163.218 47.8149 163.252 47.3264C163.256 47.1877 163.275 47.0569 163.292 46.9352C163.346 46.5653 163.386 46.2804 162.954 46.1202C162.909 45.773 162.972 45.5452 163.189 45.2913C162.966 45.0803 163.038 44.9644 163.16 44.7694C163.187 44.7263 163.216 44.6793 163.245 44.6266C163.344 44.3498 163.333 43.5687 163.326 43.0984V43.0982V43.098V43.0978C163.322 42.8769 163.32 42.7247 163.331 42.7259C163.352 42.6983 163.372 42.6741 163.39 42.6528L163.39 42.6522L163.391 42.6517L163.391 42.6515C163.479 42.5467 163.508 42.5117 163.245 42.4869C163.269 42.3857 163.295 42.2674 163.322 42.1392C163.435 41.6148 163.584 40.924 163.827 40.5489C163.754 40.4927 163.647 40.5344 163.551 40.572C163.418 40.6242 163.305 40.6684 163.331 40.4294C163.268 40.1485 163.374 40.0885 163.484 40.0264C163.577 39.9736 163.672 39.9193 163.671 39.7274C163.691 39.5219 163.58 39.3199 163.477 39.1326C163.321 38.8477 163.183 38.5967 163.555 38.4186C163.596 38.2692 163.64 38.1153 163.687 37.9563L163.688 37.9515ZM163.122 18.2823C163.413 18.6718 163.261 18.8598 163.028 19.1483C162.977 19.2111 162.923 19.2786 162.868 19.354C162.961 20.6474 162.581 22.0212 162.193 23.4248C162.147 23.5935 162.1 23.7626 162.054 23.932C161.878 25.351 161.15 26.0418 159.66 26.2211C158.294 26.5422 156.901 26.9716 155.586 27.4384C155.396 27.3634 155.585 27.1826 155.769 27.0057C155.878 26.9006 155.986 26.797 156.012 26.7177L156.014 26.7131C156.242 26.2054 156.57 25.4739 157.046 25.3697C157.198 25.4293 157.208 25.2874 157.221 25.1088C157.236 24.8962 157.255 24.6315 157.521 24.593C157.795 24.5205 157.969 24.187 158.131 23.8771C158.287 23.5801 158.431 23.3046 158.641 23.301C158.751 23.271 158.687 23.1702 158.625 23.0727C158.587 23.0121 158.549 22.9527 158.555 22.9126C158.467 22.6357 158.67 22.461 158.872 22.2866C158.961 22.2094 159.051 22.1322 159.115 22.0463C158.838 21.8844 158.965 21.7756 159.116 21.647C159.195 21.5799 159.28 21.5073 159.317 21.419C159.305 21.3219 159.369 21.2808 159.436 21.3256C159.643 21.7895 159.848 21.2371 160.009 20.8015C160.075 20.6235 160.134 20.465 160.183 20.4033C160.542 20.0738 160.803 19.6206 161.065 19.1653C161.337 18.6918 161.611 18.2161 161.998 17.8753C162.113 17.7099 162.222 17.4824 162.337 17.2408C162.618 16.6531 162.938 15.9821 163.491 15.9186C163.756 16.1505 163.865 15.7408 163.956 15.3978C163.998 15.2381 164.037 15.0929 164.085 15.0336C164.713 14.7413 164.561 15.142 164.389 15.5941C164.278 15.887 164.159 16.2015 164.238 16.363C164.055 17.0874 163.659 17.8342 163.118 18.2823H163.122ZM145.033 39.9364C145.029 39.9688 145.026 40.0012 145.026 40.0336V39.8693L145.026 39.8695C145.03 39.8769 145.034 39.8843 145.037 39.888C145.036 39.9041 145.034 39.9203 145.033 39.9364ZM188.387 21.5982L188.338 21.5721C188.338 21.5721 188.316 21.5908 188.305 21.5982H188.387ZM195.258 3.09184C197.196 3.82373 199.526 4.97758 199.996 7.16578L200.007 7.16204C200.073 8.02454 199.388 8.96987 198.771 9.821C198.509 10.1822 198.259 10.5264 198.084 10.8402C197.175 11.8001 196.38 12.7896 195.574 13.7916C195.132 14.341 194.688 14.8941 194.22 15.4481C193.242 16.3109 192.371 17.3199 191.502 18.3267C190.502 19.4854 189.504 20.6412 188.35 21.5683L188.323 21.5534C188.288 21.6127 188.251 21.6732 188.215 21.7345C187.604 22.7527 186.855 24.001 185.609 24.2793C185.525 24.3242 185.467 24.2921 185.405 24.2585C185.365 24.2363 185.323 24.2136 185.273 24.2121C185.232 24.3396 185.144 24.3726 185.061 24.4038C185.016 24.4211 184.971 24.4379 184.937 24.4697C184.831 24.5533 184.867 24.6064 184.912 24.6738C184.937 24.7118 184.966 24.7544 184.974 24.8095C184.969 24.8687 184.896 25.0205 184.826 25.163C184.778 25.2633 184.731 25.3589 184.712 25.4145C185.243 25.7655 183.951 26.7961 183.54 26.9268C182.73 28.2785 181.441 29.5967 180.25 30.7879C179.852 31.3011 179.307 31.6631 178.771 32.0181C178.337 32.3063 177.909 32.5899 177.573 32.9462C177.562 33.4802 176.998 34.0963 176.58 34.3689C176.625 34.8536 176.397 35.314 176.168 35.774C176.006 36.1008 175.844 36.4275 175.78 36.7625C175.963 37.8715 175.187 39.593 174.264 40.1195C173.333 40.8816 173.375 41.0818 173.465 41.5171C173.528 41.8219 173.615 42.2419 173.409 43.0508C173.044 43.793 173.021 44.7775 173.002 45.5835L173.002 45.5862C172.959 45.6566 172.986 45.7213 173.013 45.7827C173.034 45.8321 173.054 45.8794 173.036 45.926C172.7 46.2173 173.17 46.2771 173.409 46.2434C173.423 47.167 173.17 47.7473 172.957 48.2331C172.715 48.7884 172.526 49.22 172.853 49.8992C173.051 49.8021 173.211 49.9104 173.04 50.1269C173.137 52.2405 171.363 50.9298 170.549 50.0523C170.284 49.7987 169.932 49.6031 169.58 49.407C169.101 49.141 168.621 48.8743 168.357 48.4615C168.011 48.0929 167.664 47.6819 167.318 47.2722C166.868 46.7397 166.419 46.2093 165.978 45.7767C166.098 45.611 166.226 45.3688 166.363 45.1089C166.658 44.5488 166.997 43.9066 167.39 43.7715C167.71 43.7767 167.752 43.5593 167.807 43.2831C167.831 43.1625 167.857 43.0308 167.909 42.9014C168.693 40.5113 168.221 39.9796 167.161 38.786C166.878 38.4672 166.553 38.1012 166.199 37.64C165.187 36.8222 165.665 36.2621 166.665 36.0493C166.79 35.9899 166.97 35.8173 167.163 35.631C167.432 35.3721 167.729 35.0867 167.946 35.0411C168.149 34.9884 168.285 34.797 168.425 34.5991C168.553 34.4183 168.685 34.2321 168.876 34.1411C168.971 34.0452 169.081 33.9594 169.192 33.8732C169.439 33.6809 169.689 33.4872 169.768 33.1777C169.784 33.1572 169.827 33.1397 169.874 33.1204C170.008 33.0659 170.178 32.9963 169.881 32.8006C170.108 32.6251 170.022 32.4682 169.806 32.2703C169.408 31.9198 169.652 31.8115 169.931 31.6875C170.023 31.6464 170.12 31.6036 170.198 31.5496C170.267 31.5019 170.212 31.4082 170.147 31.2978C170.075 31.1749 169.991 31.0313 170.052 30.9074L170.082 30.8938C170.313 30.79 170.551 30.6828 170.347 30.4145C170.441 30.2947 170.524 30.0908 170.595 29.9146C170.606 29.8875 170.617 29.8611 170.627 29.8357C170.763 29.4734 170.885 29.0903 171.009 28.704C171.324 27.7244 171.645 26.7244 172.188 25.9933C172.24 25.857 172.288 25.7052 172.338 25.5466C172.452 25.1878 172.576 24.7936 172.778 24.4623C172.772 24.3648 172.693 24.3268 172.635 24.2989C172.557 24.2615 172.517 24.2421 172.737 24.1225C173.027 23.7875 173.065 23.3619 173.103 22.9236C173.135 22.5605 173.168 22.1887 173.346 21.8521C173.395 21.5272 173.576 21.1717 173.752 20.8277C173.883 20.5707 174.011 20.3201 174.078 20.0933C174.197 19.7491 174.212 19.3435 174.227 18.935C174.253 18.2444 174.279 17.5456 174.81 17.121H174.38C174.802 17.0155 174.888 16.567 174.969 16.1416C175.009 15.9345 175.047 15.7328 175.123 15.5788C175.125 15.4393 175.035 15.414 174.942 15.3881C174.852 15.3627 174.759 15.3367 174.75 15.2016C175.28 13.6557 175.795 12.0724 176.087 10.4705C176.062 10.3733 176.095 10.2766 176.127 10.1863C176.176 10.044 176.22 9.91726 176.023 9.82821C176.037 9.80627 176.031 9.75449 176.025 9.70475C176.02 9.66138 176.014 9.61956 176.023 9.60043C176.637 8.99746 176.699 8.08272 176.758 7.19761C176.783 6.83844 176.807 6.48416 176.867 6.15756C177.184 4.25315 177.315 2.34501 176.83 0.365925C179.242 0.358456 184.111 2.57653 183.783 5.72814C182.633 10.0261 181.258 14.3614 179.69 18.5175C179.642 18.6152 179.596 18.7136 179.55 18.8113C179.395 19.1434 179.244 19.4677 179.01 19.7274C179.055 20.0532 178.95 20.332 178.847 20.6066C178.804 20.719 178.762 20.8308 178.73 20.9447C178.398 21.4563 178.196 21.9977 178.077 22.6176C178.065 22.8353 177.969 23.0879 177.871 23.3497C177.725 23.7344 177.573 24.1387 177.666 24.4809C177.886 24.5826 177.918 24.3956 177.952 24.1975C177.971 24.09 177.99 23.9792 178.04 23.9096C178.161 23.9504 178.28 24.0268 178.396 24.1016C178.673 24.28 178.937 24.4495 179.19 24.1075C179.21 24.0904 179.177 24.0662 179.134 24.0337C179.064 23.9811 178.964 23.9066 179.01 23.8051C179.925 23.6632 180.941 22.2031 181.4 21.404C181.236 21.1725 181.221 21.1053 181.494 21.0045C181.646 20.7737 181.885 20.8605 182.121 20.9465C182.389 21.0441 182.655 21.1405 182.786 20.7692C182.844 20.5792 182.897 20.3746 182.951 20.1675C183.061 19.7478 183.173 19.3181 183.331 18.9806C183.63 19.0688 183.684 18.8115 183.74 18.5494C183.776 18.3789 183.813 18.2064 183.917 18.1254C183.962 18.1441 183.992 18.1591 184.022 18.174C184.08 18.1005 183.995 17.9995 183.921 17.9106C183.886 17.8686 183.853 17.8292 183.839 17.7968C183.938 17.6647 184.145 17.6668 184.322 17.6687C184.606 17.6716 184.813 17.6738 184.384 17.1247C184.437 16.9891 184.618 16.9544 184.801 16.9192C185.057 16.87 185.317 16.82 185.239 16.4936C185.542 16.0903 185.869 15.6609 186.212 15.2116C187.717 13.2397 189.514 10.8839 190.792 8.6669C191.434 8.06203 191.753 6.95942 192.066 5.87609C192.606 4.01003 193.129 2.20116 195.258 3.09184ZM187.823 15.4406C187.625 15.3958 187.864 15.2203 187.972 15.2502C187.987 15.3249 187.872 15.4443 187.823 15.4406Z" fill="#CBCBCB"/>
</svg>
